<svg xmlns="http://www.w3.org/2000/svg" style="display:none">
  <!--
    AdminForge icon sprite. 24x24, stroke-based, currentColor.
    Adding a tool that needs a new icon means adding one <symbol> here and
    referencing its id from ITool.Icon. Keep the stroke weight at 1.75.
  -->
  <defs>
    <style>
      symbol { fill: none; stroke: currentColor; stroke-width: 1.75; stroke-linecap: round; stroke-linejoin: round; }
    </style>
  </defs>

  <symbol id="anvil" viewBox="0 0 24 24">
    <path d="M3 8h9l3 3h6l-2.5 4.5H8L5 12H3z" />
    <path d="M8 15.5 7 20h10l-1-4.5" />
    <path d="M5 20h14" />
  </symbol>

  <symbol id="search" viewBox="0 0 24 24">
    <circle cx="11" cy="11" r="6.5" />
    <path d="m16 16 4.5 4.5" />
  </symbol>

  <symbol id="github" viewBox="0 0 24 24">
    <path d="M9 19c-4.5 1.5-4.5-2.5-6.5-3m13 5v-3.9a3.4 3.4 0 0 0-.9-2.6c3-.3 6.2-1.5 6.2-6.8a5.3 5.3 0 0 0-1.5-3.7 4.9 4.9 0 0 0-.1-3.7s-1.2-.3-3.9 1.5a13.4 13.4 0 0 0-7 0C5.6 1.1 4.4 1.4 4.4 1.4a4.9 4.9 0 0 0-.1 3.7A5.3 5.3 0 0 0 2.8 8.8c0 5.3 3.2 6.5 6.2 6.8a3.4 3.4 0 0 0-.9 2.6V22" />
  </symbol>

  <symbol id="network" viewBox="0 0 24 24">
    <rect x="8.5" y="2.5" width="7" height="6" rx="1.5" />
    <rect x="2" y="15.5" width="7" height="6" rx="1.5" />
    <rect x="15" y="15.5" width="7" height="6" rx="1.5" />
    <path d="M12 8.5v3.5M5.5 15.5V12h13v3.5" />
  </symbol>

  <symbol id="globe" viewBox="0 0 24 24">
    <circle cx="12" cy="12" r="9" />
    <path d="M3 12h18" />
    <path d="M12 3a15 15 0 0 1 0 18 15 15 0 0 1 0-18Z" />
  </symbol>

  <symbol id="shield" viewBox="0 0 24 24">
    <path d="M12 2.5 4.5 5.6v5.6c0 4.6 3.1 8.5 7.5 10 4.4-1.5 7.5-5.4 7.5-10V5.6Z" />
    <path d="m9 12 2.2 2.2L15.5 10" />
  </symbol>

  <symbol id="certificate" viewBox="0 0 24 24">
    <rect x="3" y="3.5" width="18" height="12" rx="2" />
    <path d="M7 8h6M7 11h4" />
    <circle cx="16.5" cy="16.5" r="3" />
    <path d="M14.6 19v3.5l1.9-1.2 1.9 1.2V19" />
  </symbol>

  <symbol id="mail" viewBox="0 0 24 24">
    <rect x="2.5" y="4.5" width="19" height="15" rx="2" />
    <path d="m3 6.5 9 6 9-6" />
  </symbol>

  <symbol id="windows" viewBox="0 0 24 24">
    <path d="M3.5 6.2 10.5 5v6.3H3.5z" />
    <path d="M12.4 4.7 20.5 3.5v7.8h-8.1z" />
    <path d="M3.5 12.7h7v6.3l-7-1.2z" />
    <path d="M12.4 12.7h8.1v7.8l-8.1-1.2z" />
  </symbol>

  <symbol id="key" viewBox="0 0 24 24">
    <circle cx="7.5" cy="12" r="4" />
    <path d="M11.5 12H21M18 12v3.5M14.8 12v2.5" />
  </symbol>

  <symbol id="hash" viewBox="0 0 24 24">
    <path d="M5 9h14M5 15h14M10 3.5 8 20.5M16 3.5l-2 17" />
  </symbol>

  <symbol id="token" viewBox="0 0 24 24">
    <rect x="2.5" y="6.5" width="19" height="11" rx="2" />
    <path d="M6.5 12h2.5M12 12h2M17 12h.6" />
  </symbol>

  <symbol id="clock" viewBox="0 0 24 24">
    <circle cx="12" cy="12" r="9" />
    <path d="M12 7v5.2l3.2 2" />
  </symbol>

  <symbol id="code" viewBox="0 0 24 24">
    <path d="m8.5 8-4.5 4 4.5 4M15.5 8l4.5 4-4.5 4M13.5 5l-3 14" />
  </symbol>

  <symbol id="gauge" viewBox="0 0 24 24">
    <path d="M3.5 17a9 9 0 1 1 17 0" />
    <path d="m12 13 4-3.5" />
    <circle cx="12" cy="14" r="1.6" />
  </symbol>

  <symbol id="identity" viewBox="0 0 24 24">
    <rect x="2.5" y="4.5" width="19" height="15" rx="2" />
    <circle cx="8.5" cy="11" r="2.3" />
    <path d="M5 16.4a3.7 3.7 0 0 1 7 0M14.5 10h4M14.5 13.5h4" />
  </symbol>

  <symbol id="tool" viewBox="0 0 24 24">
    <path d="M14.5 6.5a4 4 0 0 1 5.2 5.2l-8 8a2.5 2.5 0 0 1-3.6-3.6l8-8Z" />
    <path d="M9.5 4.5 4 10l3 3" />
  </symbol>

  <symbol id="alert" viewBox="0 0 24 24">
    <circle cx="12" cy="12" r="9" />
    <path d="M12 7.5v5M12 16h.01" />
  </symbol>

  <symbol id="check" viewBox="0 0 24 24">
    <path d="m5 12.5 4.5 4.5L19 7" />
  </symbol>

  <symbol id="copy" viewBox="0 0 24 24">
    <rect x="8.5" y="8.5" width="12" height="12" rx="2" />
    <path d="M4.5 15.5A2 2 0 0 1 3.5 14V5.5a2 2 0 0 1 2-2H14a2 2 0 0 1 1.5 1" />
  </symbol>

  <symbol id="terminal" viewBox="0 0 24 24">
    <rect x="2.5" y="4" width="19" height="16" rx="2" />
    <path d="m6.5 9.5 3 2.5-3 2.5M13 15h4.5" />
  </symbol>

  <symbol id="lock" viewBox="0 0 24 24">
    <rect x="4" y="10" width="16" height="11" rx="2" />
    <path d="M8 10V7.5a4 4 0 0 1 8 0V10" />
  </symbol>

  <symbol id="server" viewBox="0 0 24 24">
    <rect x="3" y="3.5" width="18" height="7" rx="1.8" />
    <rect x="3" y="13.5" width="18" height="7" rx="1.8" />
    <path d="M7 7h.01M7 17h.01" />
  </symbol>
</svg>
